<svg xmlns="http://www.w3.org/2000/svg" viewBox="0 0 525.46 71"><title>logo</title><g id="Lager_2" data-name="Lager 2"><g id="Lager_2-2" data-name="Lager 2"><path d="M8.55,45.88H20v6.55H0V17.08H8.55Z"/><path d="M32.45,17.08V52.43H23.9V17.08Z"/><path d="M45,17.08l8.65,26.6,8.65-26.6H71.4L59.1,52.43H48.05L35.8,17.08Z"/><path d="M83.25,23.88v7.4h12v6.45h-12v7.85H96.7v6.85h-22V17.08h22v6.8Z"/><path d="M137,17.08v6.8h-9.6V52.43h-8.6V23.88h-9.5v-6.8Z"/><path d="M171.1,17.08V52.43h-8.6V37.68H149.1V52.43h-8.55V17.08h8.55v13.7h13.4V17.08Z"/><path d="M185.55,23.88v7.4H197.5v6.45H185.55v7.85H199v6.85H177V17.08h22v6.8Z"/><path d="M235.75,46H222.5l-2.2,6.45h-9l12.95-35.1h9.85l13,35.1H238Zm-2.2-6.5-4.4-13-4.45,13Z"/><path d="M279.92,43.91a15.59,15.59,0,0,1-6.4,6.27,20.4,20.4,0,0,1-9.82,2.25H250.35V17.08H263.7a20.84,20.84,0,0,1,9.85,2.2,15.42,15.42,0,0,1,6.37,6.2,18.67,18.67,0,0,1,2.23,9.2A18.82,18.82,0,0,1,279.92,43.91Zm-9.2-1.78a9.8,9.8,0,0,0,2.78-7.45,9.82,9.82,0,0,0-2.78-7.45c-1.85-1.76-4.44-2.65-7.77-2.65H258.9v20.2H263Q267.94,44.78,270.72,42.13Z"/><path d="M293.59,17.08l8.66,26.6,8.65-26.6H320L307.75,52.43H296.69L284.44,17.08Z"/><path d="M331.89,23.88v7.4h11.95v6.45H331.89v7.85h13.45v6.85h-22V17.08h22v6.8Z"/><path d="M381.59,52.43H373l-14.3-21.7v21.7h-8.55V17.08h8.55L373,39V17.08h8.55Z"/><path d="M412.89,17.08v6.8h-9.6V52.43h-8.6V23.88h-9.5v-6.8Z"/><path d="M424.79,17.08v20.4a8,8,0,0,0,1.58,5.35,6.58,6.58,0,0,0,9.15,0,8,8,0,0,0,1.57-5.35V17.08h8.55v20.4a16.82,16.82,0,0,1-1.95,8.43,12.68,12.68,0,0,1-5.32,5.15,16.51,16.51,0,0,1-7.63,1.72,15.89,15.89,0,0,1-7.5-1.7,12.13,12.13,0,0,1-5.1-5.15,17.71,17.71,0,0,1-1.85-8.45V17.08Z"/><path d="M469.49,52.43l-7.65-13.35h-1.95V52.43h-8.55V17.08h14.6a15.84,15.84,0,0,1,7.1,1.45,10,10,0,0,1,4.35,4,11.34,11.34,0,0,1,1.45,5.77,10.29,10.29,0,0,1-2.12,6.55,10.85,10.85,0,0,1-6.18,3.7l8.4,13.9Zm-9.6-19.2h5.3a5.34,5.34,0,0,0,3.75-1.12,4.35,4.35,0,0,0,1.2-3.33,4.43,4.43,0,0,0-1.22-3.3,5.15,5.15,0,0,0-3.73-1.2h-5.3Z"/><path d="M491.69,23.88v7.4h11.95v6.45H491.69v7.85h13.45v6.85h-22V17.08h22v6.8Z"/><path d="M517.34,43.88v8.55h-8.85V43.88Z"/><path d="M525.46,71h-444V0h444Zm-443-1h442V1h-442Z"/></g></g></svg>